<svg width="17" height="13" viewBox="0 0 17 13" fill="none" xmlns="http://www.w3.org/2000/svg">
<path d="M16.7107 1.75301L6.25225 12.6982C6.16116 12.7939 6.05292 12.8698 5.93375 12.9215C5.81457 12.9733 5.68679 13 5.55775 13C5.4287 13 5.30093 12.9733 5.18175 12.9215C5.06257 12.8698 4.95433 12.7939 4.86324 12.6982L0.287674 7.90968C0.19647 7.81423 0.124123 7.70092 0.0747639 7.57621C0.0254048 7.4515 1.35904e-09 7.31783 0 7.18285C-1.35904e-09 7.04787 0.0254048 6.9142 0.0747639 6.78949C0.124123 6.66478 0.19647 6.55147 0.287674 6.45602C0.378877 6.36057 0.487152 6.28486 0.606315 6.2332C0.725479 6.18155 0.853198 6.15496 0.98218 6.15496C1.11116 6.15496 1.23888 6.18155 1.35804 6.2332C1.47721 6.28486 1.58548 6.36057 1.67669 6.45602L5.55856 10.5186L15.3233 0.301062C15.5075 0.108295 15.7573 0 16.0178 0C16.2783 0 16.5281 0.108295 16.7123 0.301062C16.8965 0.493829 17 0.755278 17 1.02789C17 1.30051 16.8965 1.56195 16.7123 1.75472L16.7107 1.75301Z" fill="#D2090A"/>
</svg>
