<svg width="54" height="52" viewBox="0 0 54 52" fill="none" xmlns="http://www.w3.org/2000/svg">
<path d="M12 19.6851H22" stroke="#042781" stroke-width="2.74124" stroke-linecap="round" stroke-linejoin="round"/>
<path d="M49.0826 22.2113H42.5775C38.115 22.2113 34.5 25.604 34.5 29.79C34.5 33.976 38.1175 37.3688 42.575 37.3688H49.0826C49.2926 37.3688 49.3951 37.3688 49.4826 37.3637C50.8326 37.2804 51.9076 36.2724 51.9951 35.0067C52.0001 34.9259 52.0001 34.8274 52.0001 34.6328V24.9472C52.0001 24.7527 52.0001 24.6542 51.9951 24.5733C51.9051 23.3077 50.8326 22.2997 49.4826 22.2163C49.3951 22.2113 49.2926 22.2113 49.0826 22.2113Z" stroke="#042781" stroke-width="2.74124"/>
<path d="M49.4127 22.2113C49.2177 17.4822 48.5927 14.582 46.5702 12.5408C43.6426 9.58006 38.9276 9.58006 29.5001 9.58006H22.0001C12.5725 9.58006 7.85752 9.58006 4.93001 12.5408C2 15.4991 2 20.2636 2 29.79C2 39.3165 2 44.081 4.93001 47.0392C7.85752 50 12.5725 50 22.0001 50H29.5001C38.9276 50 43.6426 50 46.5702 47.0392C48.5927 44.998 49.2202 42.0979 49.4127 37.3688" stroke="#042781" stroke-width="2.74124"/>
<path d="M12 9.58006L21.3375 3.32255C22.6507 2.45944 24.1835 2 25.75 2C27.3166 2 28.8494 2.45944 30.1626 3.32255L39.5001 9.58006" stroke="#042781" stroke-width="2.74124" stroke-linecap="round"/>
<path d="M41.9775 29.79H42.003" stroke="#042781" stroke-width="3.65498" stroke-linecap="round" stroke-linejoin="round"/>
</svg>
