<svg width="60" height="48" viewBox="0 0 60 48" fill="none" xmlns="http://www.w3.org/2000/svg">
<g clip-path="url(#clip0_152_338)">
<rect x="25.7235" y="19.658" width="8.55224" height="12.3067" rx="1.54478" stroke="#042781" stroke-width="3.08955"/>
<path d="M1.54478 17.151C1.54478 16.4503 1.83037 15.7799 2.33566 15.2944L8.8297 9.05525C9.30924 8.59453 9.94845 8.33723 10.6134 8.33723H49.3866C50.0516 8.33723 50.6908 8.59453 51.1703 9.05525L57.6643 15.2944C58.1696 15.7799 58.4552 16.4503 58.4552 17.151V43.8806C58.4552 45.3025 57.3025 46.4552 55.8806 46.4552H4.1194C2.69748 46.4552 1.54478 45.3025 1.54478 43.8806V17.151Z" stroke="#042781" stroke-width="3.08955"/>
<path d="M20.597 26.9033C21.4501 26.9033 22.1417 26.2116 22.1417 25.3585C22.1417 24.5053 21.4501 23.8137 20.597 23.8137V26.9033ZM2.68652 26.9033H20.597V23.8137H2.68652V26.9033Z" fill="#042781"/>
<path d="M39.403 26.9033C38.5499 26.9033 37.8583 26.2116 37.8583 25.3585C37.8583 24.5053 38.5499 23.8137 39.403 23.8137V26.9033ZM57.3135 26.9033H39.403V23.8137H57.3135V26.9033Z" fill="#042781"/>
<path d="M20.5967 7.24528V3.87102C20.5967 2.73348 21.5188 1.81132 22.6564 1.81132H37.3429C38.4805 1.81132 39.4026 2.73348 39.4026 3.87102V7.24528" stroke="#042781" stroke-width="3.08955"/>
</g>
<defs>
<clipPath id="clip0_152_338">
<rect width="60" height="48" fill="white"/>
</clipPath>
</defs>
</svg>
