<svg width="49" height="48" viewBox="0 0 49 48" fill="none" xmlns="http://www.w3.org/2000/svg">
<path d="M31.8796 18.516L29.8719 18.1786C29.8234 18.4733 29.839 18.7751 29.9176 19.063C29.9962 19.351 30.1359 19.6182 30.3269 19.8461C30.518 20.0739 30.7559 20.257 31.024 20.3825C31.2921 20.5081 31.5841 20.5731 31.8796 20.573V18.516ZM2.03487 18.516V16.4589C1.49519 16.4589 0.977611 16.6757 0.595999 17.0614C0.214387 17.4472 0 17.9704 0 18.516H2.03487ZM7.46118 48H38.2826V43.886H7.46118V48ZM41.5384 16.4589H31.8796V20.573H41.5384V16.4589ZM33.8873 18.8533L36.0741 5.59237L32.0587 4.91492L29.8719 18.1786L33.8873 18.8533ZM31.3912 0.0027425H30.8106V4.11679H31.3885L31.3912 0.0027425ZM22.3428 4.58305L15.5193 14.9313L18.9053 17.2132L25.7289 6.86498L22.3428 4.58305ZM12.6976 16.4589H2.03487V20.573H12.6976V16.4589ZM0 18.516V40.4576H4.06974V18.516H0ZM45.6 41.9386L48.8558 25.4824L44.8675 24.6733L41.6117 41.1295L45.6 41.9386ZM15.5193 14.9313C15.2097 15.401 14.7902 15.7835 14.2979 16.05C13.8057 16.3165 13.256 16.4561 12.6976 16.4562V20.5703C15.1937 20.5703 17.5216 19.3114 18.9053 17.2132L15.5193 14.9313ZM36.0741 5.59237C36.1872 4.90496 36.1508 4.19817 35.9675 3.52641C35.7843 2.85464 35.4585 2.23128 35.0129 1.69963C34.5673 1.16797 34.0125 0.740787 33.387 0.447753C32.7616 0.154719 32.0806 0.00286419 31.3912 0.0027425L31.3885 4.11679C31.4869 4.11704 31.5867 4.1389 31.6758 4.18086C31.765 4.22282 31.8441 4.28388 31.9076 4.3598C31.9711 4.43573 32.0174 4.5247 32.0435 4.62055C32.0696 4.7164 32.0748 4.81685 32.0587 4.91492L36.0741 5.59237ZM41.5384 20.5703C43.6818 20.5703 45.2826 22.5505 44.8648 24.6706L48.8558 25.4797C49.0717 24.3856 49.0449 23.254 48.7771 22.1717C48.5094 21.0894 48.0075 20.0806 47.3076 19.218C46.6077 18.3554 45.7272 17.6605 44.7296 17.1834C43.7319 16.7063 42.6421 16.4589 41.5384 16.4589V20.5703ZM38.2826 48C40.0074 48.0003 41.679 47.3939 43.0131 46.2888C44.3472 45.1837 45.2613 43.6455 45.6 41.9359L41.6117 41.1268C41.4579 41.9046 41.042 42.6045 40.435 43.1071C39.828 43.6097 39.0673 43.8867 38.2826 43.886V48ZM30.8106 0.0027425C29.1357 0.00286551 27.4867 0.418249 26.01 1.21727C24.5333 2.01628 23.2746 3.17148 22.3456 4.58031L25.7289 6.86498C26.2865 6.01929 27.0422 5.32319 27.9287 4.84376C28.8153 4.36433 29.8052 4.11642 30.8106 4.11679V0.0027425ZM7.46118 43.886C5.5891 43.886 4.06974 42.35 4.06974 40.4576H0C0 42.458 0.786086 44.3764 2.18533 45.7909C3.58457 47.2054 5.48235 48 7.46118 48V43.886Z" fill="#042781"/>
<path d="M12.8877 18.516V45.943" stroke="#042781" stroke-width="3"/>
</svg>
