<svg width="30" height="30" viewBox="0 0 30 30" fill="none" xmlns="http://www.w3.org/2000/svg">
<g clip-path="url(#clip0_152_363)">
<path d="M11.5282 13.9237C11.2427 13.6382 10.8555 13.4778 10.4518 13.4778C10.0481 13.4778 9.66098 13.6382 9.37552 13.9237C9.09006 14.2091 8.92969 14.5963 8.92969 15C8.92969 15.4037 9.09006 15.7909 9.37552 16.0763L13.9234 20.6242C14.065 20.7647 14.233 20.8759 14.4177 20.9513C14.6024 21.0267 14.8002 21.065 14.9997 21.0638C15.2073 21.0572 15.4112 21.0081 15.599 20.9194C15.7867 20.8308 15.9543 20.7045 16.0912 20.5484L26.7029 8.42074C26.9479 8.11653 27.0661 7.72948 27.0327 7.34029C26.9993 6.9511 26.817 6.58982 26.5238 6.33177C26.2305 6.07371 25.849 5.93881 25.4587 5.95519C25.0685 5.97157 24.6996 6.13796 24.429 6.41968L14.9997 17.3346L11.5282 13.9237Z" fill="#D2090A"/>
<path d="M28.6434 13.484C28.2413 13.484 27.8557 13.6438 27.5714 13.9281C27.2871 14.2124 27.1274 14.5979 27.1274 15C27.1274 18.2165 25.8497 21.3012 23.5753 23.5756C21.3009 25.8499 18.2162 27.1277 14.9998 27.1277C12.6047 27.1266 10.2636 26.4163 8.27159 25.0865C6.27963 23.7566 4.72602 21.8668 3.80667 19.6552C2.88733 17.4435 2.64342 15.0092 3.10571 12.6592C3.56799 10.3092 4.71576 8.14861 6.40429 6.45C7.52717 5.3121 8.86572 4.40958 10.3416 3.79527C11.8175 3.18096 13.4011 2.8672 14.9998 2.87234C15.9692 2.87841 16.935 2.99024 17.8801 3.20585C18.0779 3.26703 18.2861 3.28704 18.4919 3.26467C18.6977 3.24229 18.8968 3.178 19.0768 3.07575C19.2568 2.9735 19.414 2.83546 19.5386 2.67014C19.6632 2.50483 19.7526 2.31574 19.8014 2.11453C19.8501 1.91333 19.8572 1.70427 19.822 1.50025C19.7869 1.29622 19.7103 1.10156 19.597 0.928262C19.4838 0.754962 19.3362 0.606696 19.1635 0.492606C18.9907 0.378515 18.7964 0.301018 18.5926 0.264892C17.4149 -0.0121606 16.2096 -0.154562 14.9998 -0.159576C12.0048 -0.144017 9.08146 0.758367 6.59879 2.4337C4.11612 4.10903 2.18534 6.48223 1.05011 9.25381C-0.0851137 12.0254 -0.373917 15.0711 0.220151 18.0067C0.814219 20.9422 2.26453 23.636 4.38807 25.7481C7.20274 28.5641 11.0183 30.1503 14.9998 30.1596C19.0203 30.1596 22.8762 28.5624 25.7192 25.7194C28.5622 22.8765 30.1593 19.0206 30.1593 15C30.1593 14.5979 29.9996 14.2124 29.7153 13.9281C29.431 13.6438 29.0454 13.484 28.6434 13.484Z" fill="#D2090A"/>
</g>
<defs>
<clipPath id="clip0_152_363">
<rect width="30" height="30" fill="white"/>
</clipPath>
</defs>
</svg>
