<svg width="24" height="29" viewBox="0 0 24 29" fill="none" xmlns="http://www.w3.org/2000/svg">
<path d="M12 6.21435C10.9212 6.21435 9.86661 6.51807 8.96962 7.0871C8.07262 7.65614 7.3735 8.46493 6.96066 9.4112C6.54781 10.3575 6.4398 11.3987 6.65026 12.4033C6.86073 13.4078 7.38022 14.3306 8.14305 15.0548C8.90589 15.7791 9.87779 16.2723 10.9359 16.4721C11.9939 16.6719 13.0907 16.5694 14.0874 16.1774C15.0841 15.7854 15.9359 15.1217 16.5353 14.2701C17.1346 13.4184 17.4545 12.4172 17.4545 11.393C17.4545 10.0195 16.8799 8.70231 15.8569 7.73113C14.834 6.75995 13.4466 6.21435 12 6.21435ZM12 14.5001C11.3527 14.5001 10.72 14.3179 10.1818 13.9765C9.64357 13.6351 9.2241 13.1498 8.97639 12.582C8.72869 12.0143 8.66388 11.3895 8.79016 10.7868C8.91644 10.1841 9.22813 9.63041 9.68583 9.19587C10.1435 8.76132 10.7267 8.46539 11.3615 8.3455C11.9964 8.22561 12.6544 8.28714 13.2524 8.52232C13.8504 8.75749 14.3616 9.15575 14.7212 9.66672C15.0808 10.1777 15.2727 10.7784 15.2727 11.393C15.2727 12.217 14.9279 13.0074 14.3142 13.5901C13.7004 14.1728 12.868 14.5001 12 14.5001ZM12 0C8.81851 0.00342661 5.76836 1.20485 3.5187 3.34071C1.26905 5.47656 0.00360918 8.37242 0 11.393C0 15.4582 1.97864 19.7668 5.72727 23.854C7.41167 25.7009 9.30744 27.364 11.3795 28.8126C11.563 28.9346 11.7815 29 12.0055 29C12.2294 29 12.4479 28.9346 12.6314 28.8126C14.6997 27.3634 16.5917 25.7004 18.2727 23.854C22.0159 19.7668 24 15.4582 24 11.393C23.9964 8.37242 22.731 5.47656 20.4813 3.34071C18.2316 1.20485 15.1815 0.00342661 12 0ZM12 26.6699C9.74591 24.9869 2.18182 18.8049 2.18182 11.393C2.18182 8.92075 3.21623 6.54978 5.0575 4.80166C6.89876 3.05354 9.39606 2.07145 12 2.07145C14.6039 2.07145 17.1012 3.05354 18.9425 4.80166C20.7838 6.54978 21.8182 8.92075 21.8182 11.393C21.8182 18.8023 14.2541 24.9869 12 26.6699Z" fill="#042781"/>
</svg>
