<svg width="130" height="42" viewBox="0 0 130 42" fill="none" xmlns="http://www.w3.org/2000/svg">
<path d="M1.13454 18.5308H29.7502V30.8847C29.7502 35.8278 25.743 39.835 20.7999 39.835H10.0848C5.14171 39.835 1.13454 35.8278 1.13454 30.8847V18.5308Z" stroke="#042781" stroke-width="2.26908"/>
<path d="M27.9694 15.5054C28.3633 9.70662 26.8891 6.2732 24.4896 3.87366C22.09 1.47411 19.0348 0 15.4421 0C11.5343 0 8.82395 1.28942 6.23973 3.87366C3.90763 6.20577 2.20581 9.70662 2.71004 15.5054L6.66524 15.5054C6.66524 9.26541 7.81549 8.31996 9.19135 6.6704C10.8492 5.0126 13.0976 4.08126 15.4421 4.08126C17.7866 4.08126 20.2954 4.95781 21.6191 6.6704C22.9427 8.38299 24.0142 9.39147 24.0142 15.5054H27.9694Z" fill="#042781"/>
<path d="M24.0979 22.8852V29.8816C24.0979 31.515 21.8714 34.7979 18.7404 34.7979C16.7029 34.7979 12.7269 33.5319 12.5634 29.8816C12.4249 26.7877 12.5004 23.8097 12.5634 22.8852C12.7105 21.3305 14.1518 18.2588 18.7404 18.4101" stroke="#042781" stroke-width="2.26908" stroke-linecap="round"/>
<path fill-rule="evenodd" clip-rule="evenodd" d="M18.6796 12.2617C16.9839 11.8377 14.0891 12.1076 11.4719 13.4289C8.78943 14.7833 6.29044 17.2988 5.6238 21.4389L5.60938 21.5285V21.6193V30.4435V30.512L5.61762 30.58C5.75189 31.6877 6.0463 33.0027 6.69924 34.0974C7.37734 35.2342 8.47563 36.1718 10.1213 36.3017C10.2999 36.3158 10.4722 36.2878 10.6283 36.2258C8.82105 35.2028 7.7739 33.7755 7.88042 30.3887C7.87976 30.3836 7.87911 30.3785 7.87846 30.3733V21.7124C8.4294 18.4676 10.3587 16.5329 12.4946 15.4545C14.236 14.5753 16.049 14.2996 17.2699 14.3515V28.6786C17.2699 29.3052 17.7779 29.8132 18.4045 29.8132C19.0311 29.8132 19.539 29.3052 19.539 28.6786V13.3623V12.4765L18.6796 12.2617Z" fill="#042781"/>
<path d="M39.5511 20.9767H48.8547V24.7827H34.1063V21.056L42.8549 9.8229H34.6878V6.01687H48.6433V9.37358L39.5511 20.9767ZM57.3445 6.01687H62.3928L69.1591 24.7827H64.5601L63.3443 21.2674H56.3666L55.1772 24.7827H50.5783L57.3445 6.01687ZM62.1021 17.5671L59.8819 11.0123L57.6353 17.5671H62.1021ZM77.5979 6.01687L81.9326 18.7565L86.2408 6.01687H92.3992V24.7827H87.7474V13.2589L83.7299 24.7299H80.1353L76.1178 13.2589V24.7827H71.466V6.01687H77.5979ZM109.447 6.01687V9.8229H100.593V13.4968H109.13V17.2499H100.593V20.9767H109.659V24.7827H95.9413V6.01687H109.447ZM117.454 6.01687V13.7875L123.665 6.01687H128.74L122 14.3426L129.136 24.7827H124.194L119.199 17.3821L117.454 19.523V24.7827H112.802V6.01687H117.454Z" fill="#042781"/>
<path d="M37.1684 33.5379C37.2258 33.8822 37.3406 34.1788 37.5127 34.4275C37.6849 34.6666 37.9145 34.8531 38.2014 34.987C38.4884 35.1114 38.8232 35.1736 39.2058 35.1736C39.4928 35.1736 39.7415 35.1353 39.9519 35.0588C40.1719 34.9822 40.3393 34.8722 40.4541 34.7288C40.5689 34.5853 40.6263 34.4083 40.6263 34.1979C40.6167 33.8727 40.4637 33.6096 40.1671 33.4087C39.8706 33.2079 39.3589 33.0213 38.6319 32.8492C37.3788 32.5622 36.4318 32.17 35.791 31.6726C35.1596 31.1752 34.844 30.5248 34.844 29.7213C34.844 29.0995 35.0114 28.5591 35.3462 28.0999C35.681 27.6312 36.1497 27.2725 36.7523 27.0238C37.3645 26.7656 38.0771 26.6364 38.8902 26.6364C39.6554 26.6364 40.3345 26.7847 40.9276 27.0812C41.5302 27.3682 42.0085 27.7795 42.3624 28.3152C42.7259 28.8412 42.9507 29.4582 43.0368 30.1661L40.5402 30.2665C40.5115 29.9413 40.4206 29.6591 40.2676 29.42C40.1145 29.1713 39.9137 28.9847 39.665 28.8604C39.4258 28.736 39.1484 28.6739 38.8328 28.6739C38.3928 28.6739 38.0388 28.7743 37.771 28.9752C37.5032 29.176 37.3836 29.4391 37.4123 29.7643C37.4219 29.9843 37.5032 30.1708 37.6562 30.3239C37.8093 30.4674 38.0006 30.5869 38.2301 30.6826C38.4597 30.7687 38.7658 30.8596 39.1484 30.9552L39.3206 30.9983C40.5641 31.2565 41.5159 31.6439 42.1759 32.1604C42.8455 32.677 43.1802 33.337 43.1802 34.1405C43.1802 34.7718 43.0081 35.3218 42.6637 35.7905C42.3194 36.2592 41.8411 36.6179 41.2289 36.8666C40.6167 37.1058 39.9232 37.2253 39.1484 37.2253C38.2971 37.2253 37.5414 37.0819 36.8814 36.7949C36.2214 36.5079 35.6953 36.0966 35.3031 35.561C34.9205 35.0157 34.7053 34.3844 34.6575 33.667L37.1684 33.5379ZM52.418 26.866V28.9321H47.6114V30.9265H52.2458V32.9639H47.6114V34.987H52.5328V37.0532H45.0861V26.866H52.418ZM59.2323 26.866C59.9497 26.866 60.5906 26.9856 61.155 27.2247C61.7193 27.4543 62.1641 27.7986 62.4894 28.2578C62.8146 28.7169 62.9772 29.2717 62.9772 29.9221C62.9772 30.4004 62.8863 30.8213 62.7046 31.1848C62.5228 31.5387 62.2598 31.8257 61.9154 32.0457C61.5806 32.2657 61.1837 32.4139 60.7245 32.4905L60.5667 32.3757C61.3128 32.3757 61.8628 32.5144 62.2167 32.7918C62.5707 33.0692 62.7715 33.5283 62.8194 34.1692L63.0633 37.0532H60.5237L60.3515 34.5996C60.3228 34.1788 60.1889 33.887 59.9497 33.7244C59.7106 33.5522 59.3232 33.4661 58.7875 33.4661H57.0945V37.0532H54.5692V26.866H59.2323ZM58.8162 31.4C59.3328 31.4 59.7249 31.2948 59.9928 31.0843C60.2606 30.8739 60.3945 30.5678 60.3945 30.1661C60.3945 29.7643 60.2606 29.4582 59.9928 29.2478C59.7249 29.0373 59.3328 28.9321 58.8162 28.9321H57.0945V31.4H58.8162ZM66.7333 26.866L68.369 33.5522L70.019 26.866H72.1138L73.7782 33.5522L75.3995 26.866H77.9965L75.2274 37.0532H72.616L71.0664 31.1417L69.5311 37.0532H66.9198L64.1363 26.866H66.7333ZM82.352 26.866V37.0532H79.8267V26.866H82.352ZM86.9099 33.5379C86.9673 33.8822 87.082 34.1788 87.2542 34.4275C87.4264 34.6666 87.656 34.8531 87.9429 34.987C88.2299 35.1114 88.5647 35.1736 88.9473 35.1736C89.2343 35.1736 89.483 35.1353 89.6934 35.0588C89.9134 34.9822 90.0808 34.8722 90.1956 34.7288C90.3104 34.5853 90.3678 34.4083 90.3678 34.1979C90.3582 33.8727 90.2052 33.6096 89.9086 33.4087C89.6121 33.2079 89.1003 33.0213 88.3734 32.8492C87.1203 32.5622 86.1733 32.17 85.5324 31.6726C84.9011 31.1752 84.5855 30.5248 84.5855 29.7213C84.5855 29.0995 84.7529 28.5591 85.0877 28.0999C85.4224 27.6312 85.8912 27.2725 86.4938 27.0238C87.106 26.7656 87.8186 26.6364 88.6316 26.6364C89.3969 26.6364 90.076 26.7847 90.6691 27.0812C91.2717 27.3682 91.75 27.7795 92.1039 28.3152C92.4674 28.8412 92.6922 29.4582 92.7783 30.1661L90.2817 30.2665C90.253 29.9413 90.1621 29.6591 90.0091 29.42C89.856 29.1713 89.6551 28.9847 89.4064 28.8604C89.1673 28.736 88.8899 28.6739 88.5743 28.6739C88.1342 28.6739 87.7803 28.7743 87.5125 28.9752C87.2447 29.176 87.1251 29.4391 87.1538 29.7643C87.1634 29.9843 87.2447 30.1708 87.3977 30.3239C87.5508 30.4674 87.7421 30.5869 87.9716 30.6826C88.2012 30.7687 88.5073 30.8596 88.8899 30.9552L89.0621 30.9983C90.3056 31.2565 91.2574 31.6439 91.9174 32.1604C92.5869 32.677 92.9217 33.337 92.9217 34.1405C92.9217 34.7718 92.7496 35.3218 92.4052 35.7905C92.0608 36.2592 91.5826 36.6179 90.9704 36.8666C90.3582 37.1058 89.6647 37.2253 88.8899 37.2253C88.0386 37.2253 87.2829 37.0819 86.6229 36.7949C85.9629 36.5079 85.4368 36.0966 85.0446 35.561C84.662 35.0157 84.4468 34.3844 84.3989 33.667L86.9099 33.5379ZM102.91 26.866C103.723 26.866 104.431 27.0047 105.034 27.2821C105.646 27.5595 106.115 27.9564 106.44 28.473C106.775 28.9799 106.942 29.5826 106.942 30.2808C106.942 30.9696 106.775 31.5722 106.44 32.0887C106.115 32.6052 105.646 33.0022 105.034 33.2796C104.431 33.557 103.723 33.6957 102.91 33.6957H101.217V37.0532H98.6919V26.866H102.91ZM102.738 31.6296C103.255 31.6296 103.652 31.5148 103.929 31.2852C104.216 31.0556 104.359 30.7209 104.359 30.2808C104.359 29.8408 104.216 29.506 103.929 29.2765C103.652 29.0469 103.255 28.9321 102.738 28.9321H101.217V31.6296H102.738ZM113.581 26.866C114.298 26.866 114.939 26.9856 115.503 27.2247C116.068 27.4543 116.513 27.7986 116.838 28.2578C117.163 28.7169 117.326 29.2717 117.326 29.9221C117.326 30.4004 117.235 30.8213 117.053 31.1848C116.871 31.5387 116.608 31.8257 116.264 32.0457C115.929 32.2657 115.532 32.4139 115.073 32.4905L114.915 32.3757C115.661 32.3757 116.211 32.5144 116.565 32.7918C116.919 33.0692 117.12 33.5283 117.168 34.1692L117.412 37.0532H114.872L114.7 34.5996C114.671 34.1788 114.537 33.887 114.298 33.7244C114.059 33.5522 113.672 33.4661 113.136 33.4661H111.443V37.0532H108.918V26.866H113.581ZM113.165 31.4C113.681 31.4 114.073 31.2948 114.341 31.0843C114.609 30.8739 114.743 30.5678 114.743 30.1661C114.743 29.7643 114.609 29.4582 114.341 29.2478C114.073 29.0373 113.681 28.9321 113.165 28.9321H111.443V31.4H113.165ZM123.903 37.2827C122.879 37.2827 121.99 37.0675 121.234 36.6371C120.479 36.2066 119.895 35.5944 119.484 34.8005C119.082 33.997 118.881 33.0548 118.881 31.9739C118.881 30.8835 119.082 29.9365 119.484 29.133C119.895 28.3295 120.479 27.7125 121.234 27.2821C121.99 26.8516 122.879 26.6364 123.903 26.6364C124.926 26.6364 125.816 26.8516 126.572 27.2821C127.327 27.7125 127.906 28.3295 128.308 29.133C128.719 29.9365 128.925 30.8835 128.925 31.9739C128.925 33.0548 128.719 33.997 128.308 34.8005C127.906 35.5944 127.327 36.2066 126.572 36.6371C125.816 37.0675 124.926 37.2827 123.903 37.2827ZM123.903 35.2166C124.419 35.2166 124.859 35.0923 125.223 34.8435C125.586 34.5853 125.864 34.217 126.055 33.7387C126.246 33.2509 126.342 32.6626 126.342 31.9739C126.342 31.2852 126.246 30.6969 126.055 30.2091C125.864 29.7117 125.586 29.3387 125.223 29.09C124.859 28.8317 124.419 28.7026 123.903 28.7026C123.377 28.7026 122.932 28.8317 122.569 29.09C122.205 29.3387 121.928 29.7117 121.736 30.2091C121.555 30.6969 121.464 31.2852 121.464 31.9739C121.464 32.6626 121.555 33.2509 121.736 33.7387C121.928 34.217 122.205 34.5853 122.569 34.8435C122.932 35.0923 123.377 35.2166 123.903 35.2166Z" fill="#042781"/>
</svg>
