<svg width="26" height="19" viewBox="0 0 26 19" fill="none" xmlns="http://www.w3.org/2000/svg">
<path d="M25 2.88889V16.1111C25 16.6121 24.8055 17.0925 24.4593 17.4468C24.1131 17.801 23.6435 18 23.1538 18H2.84615C2.35652 18 1.88695 17.801 1.54073 17.4468C1.1945 17.0925 1 16.6121 1 16.1111V2.88889M25 2.88889C25 2.38792 24.8055 1.90748 24.4593 1.55324C24.1131 1.19901 23.6435 1 23.1538 1H2.84615C2.35652 1 1.88695 1.19901 1.54073 1.55324C1.1945 1.90748 1 2.38792 1 2.88889M25 2.88889L14.0505 10.6447C13.7418 10.8632 13.3754 10.9803 13 10.9803C12.6246 10.9803 12.2582 10.8632 11.9495 10.6447L1 2.88889" stroke="#042781" stroke-width="1.84615" stroke-linecap="round" stroke-linejoin="round"/>
</svg>
