<svg width="121" height="20" viewBox="0 0 121 20" fill="none" xmlns="http://www.w3.org/2000/svg">
<path d="M6.91627 6.03802L0.818529 6.91924L0.710528 6.94115C0.547035 6.98441 0.39799 7.07015 0.278614 7.18961C0.159237 7.30907 0.0738053 7.45797 0.0310434 7.6211C-0.0117185 7.78423 -0.0102787 7.95576 0.0352157 8.11815C0.0807101 8.28055 0.168629 8.428 0.289994 8.54545L4.70751 12.8315L3.66573 18.8858L3.65331 18.9906C3.6433 19.1591 3.67841 19.3273 3.75505 19.4779C3.83168 19.6284 3.94709 19.756 4.08945 19.8475C4.23181 19.939 4.39602 19.9912 4.56524 19.9986C4.73447 20.006 4.90264 19.9685 5.05254 19.8899L10.5061 17.0319L15.9472 19.8899L16.0428 19.9337C16.2006 19.9957 16.372 20.0146 16.5396 19.9887C16.7071 19.9628 16.8647 19.893 16.9963 19.7863C17.1278 19.6796 17.2285 19.54 17.288 19.3818C17.3475 19.2235 17.3637 19.0523 17.335 18.8858L16.2922 12.8315L20.7117 8.5445L20.7862 8.46352C20.8927 8.33279 20.9625 8.17625 20.9886 8.00986C21.0146 7.84346 20.9959 7.67316 20.9345 7.51631C20.873 7.35945 20.7709 7.22165 20.6385 7.11693C20.5062 7.01222 20.3484 6.94433 20.1812 6.92019L14.0835 6.03802L11.3577 0.531563C11.2788 0.372023 11.1567 0.237677 11.0052 0.143734C10.8537 0.0497899 10.6788 0 10.5004 0C10.3219 0 10.1471 0.0497899 9.99554 0.143734C9.84402 0.237677 9.72192 0.372023 9.64304 0.531563L6.91627 6.03802Z" fill="#FFDE5A"/>
<path d="M31.9163 6.03802L25.8185 6.91924L25.7105 6.94115C25.547 6.98441 25.398 7.07015 25.2786 7.18961C25.1592 7.30907 25.0738 7.45797 25.031 7.6211C24.9883 7.78423 24.9897 7.95576 25.0352 8.11815C25.0807 8.28055 25.1686 8.428 25.29 8.54545L29.7075 12.8315L28.6657 18.8858L28.6533 18.9906C28.6433 19.1591 28.6784 19.3273 28.755 19.4779C28.8317 19.6284 28.9471 19.756 29.0895 19.8475C29.2318 19.939 29.396 19.9912 29.5652 19.9986C29.7345 20.006 29.9026 19.9685 30.0525 19.8899L35.5061 17.0319L40.9472 19.8899L41.0428 19.9337C41.2006 19.9957 41.372 20.0146 41.5396 19.9887C41.7071 19.9628 41.8647 19.893 41.9963 19.7863C42.1278 19.6796 42.2285 19.54 42.288 19.3818C42.3475 19.2235 42.3637 19.0523 42.335 18.8858L41.2922 12.8315L45.7117 8.5445L45.7862 8.46352C45.8927 8.33279 45.9625 8.17625 45.9886 8.00986C46.0146 7.84346 45.9959 7.67316 45.9345 7.51631C45.873 7.35945 45.7709 7.22165 45.6385 7.11693C45.5062 7.01222 45.3484 6.94433 45.1812 6.92019L39.0835 6.03802L36.3577 0.531563C36.2788 0.372023 36.1567 0.237677 36.0052 0.143734C35.8537 0.0497899 35.6788 0 35.5004 0C35.3219 0 35.1471 0.0497899 34.9955 0.143734C34.844 0.237677 34.7219 0.372023 34.643 0.531563L31.9163 6.03802Z" fill="#FFDE5A"/>
<path d="M56.9163 6.03802L50.8185 6.91924L50.7105 6.94115C50.547 6.98441 50.398 7.07015 50.2786 7.18961C50.1592 7.30907 50.0738 7.45797 50.031 7.6211C49.9883 7.78423 49.9897 7.95576 50.0352 8.11815C50.0807 8.28055 50.1686 8.428 50.29 8.54545L54.7075 12.8315L53.6657 18.8858L53.6533 18.9906C53.6433 19.1591 53.6784 19.3273 53.755 19.4779C53.8317 19.6284 53.9471 19.756 54.0895 19.8475C54.2318 19.939 54.396 19.9912 54.5652 19.9986C54.7345 20.006 54.9026 19.9685 55.0525 19.8899L60.5061 17.0319L65.9472 19.8899L66.0428 19.9337C66.2006 19.9957 66.372 20.0146 66.5396 19.9887C66.7071 19.9628 66.8647 19.893 66.9963 19.7863C67.1278 19.6796 67.2285 19.54 67.288 19.3818C67.3475 19.2235 67.3637 19.0523 67.335 18.8858L66.2922 12.8315L70.7117 8.5445L70.7862 8.46352C70.8927 8.33279 70.9625 8.17625 70.9886 8.00986C71.0146 7.84346 70.9959 7.67316 70.9345 7.51631C70.873 7.35945 70.7709 7.22165 70.6385 7.11693C70.5062 7.01222 70.3484 6.94433 70.1812 6.92019L64.0835 6.03802L61.3577 0.531563C61.2788 0.372023 61.1567 0.237677 61.0052 0.143734C60.8537 0.0497899 60.6788 0 60.5004 0C60.3219 0 60.1471 0.0497899 59.9955 0.143734C59.844 0.237677 59.7219 0.372023 59.643 0.531563L56.9163 6.03802Z" fill="#FFDE5A"/>
<path d="M81.9163 6.03802L75.8185 6.91924L75.7105 6.94115C75.547 6.98441 75.398 7.07015 75.2786 7.18961C75.1592 7.30907 75.0738 7.45797 75.031 7.6211C74.9883 7.78423 74.9897 7.95576 75.0352 8.11815C75.0807 8.28055 75.1686 8.428 75.29 8.54545L79.7075 12.8315L78.6657 18.8858L78.6533 18.9906C78.6433 19.1591 78.6784 19.3273 78.755 19.4779C78.8317 19.6284 78.9471 19.756 79.0895 19.8475C79.2318 19.939 79.396 19.9912 79.5652 19.9986C79.7345 20.006 79.9026 19.9685 80.0525 19.8899L85.5061 17.0319L90.9472 19.8899L91.0428 19.9337C91.2006 19.9957 91.372 20.0146 91.5396 19.9887C91.7071 19.9628 91.8647 19.893 91.9963 19.7863C92.1278 19.6796 92.2285 19.54 92.288 19.3818C92.3475 19.2235 92.3637 19.0523 92.335 18.8858L91.2922 12.8315L95.7117 8.5445L95.7862 8.46352C95.8927 8.33279 95.9625 8.17625 95.9886 8.00986C96.0146 7.84346 95.9959 7.67316 95.9345 7.51631C95.873 7.35945 95.7709 7.22165 95.6385 7.11693C95.5062 7.01222 95.3484 6.94433 95.1812 6.92019L89.0835 6.03802L86.3577 0.531563C86.2788 0.372023 86.1567 0.237677 86.0052 0.143734C85.8537 0.0497899 85.6788 0 85.5004 0C85.3219 0 85.1471 0.0497899 84.9955 0.143734C84.844 0.237677 84.7219 0.372023 84.643 0.531563L81.9163 6.03802Z" fill="#FFDE5A"/>
<path d="M106.916 6.03802L100.819 6.91924L100.711 6.94115C100.547 6.98441 100.398 7.07015 100.279 7.18961C100.159 7.30907 100.074 7.45797 100.031 7.6211C99.9883 7.78423 99.9897 7.95576 100.035 8.11815C100.081 8.28055 100.169 8.428 100.29 8.54545L104.708 12.8315L103.666 18.8858L103.653 18.9906C103.643 19.1591 103.678 19.3273 103.755 19.4779C103.832 19.6284 103.947 19.756 104.089 19.8475C104.232 19.939 104.396 19.9912 104.565 19.9986C104.734 20.006 104.903 19.9685 105.053 19.8899L110.506 17.0319L115.947 19.8899L116.043 19.9337C116.201 19.9957 116.372 20.0146 116.54 19.9887C116.707 19.9628 116.865 19.893 116.996 19.7863C117.128 19.6796 117.228 19.54 117.288 19.3818C117.348 19.2235 117.364 19.0523 117.335 18.8858L116.292 12.8315L120.712 8.5445L120.786 8.46352C120.893 8.33279 120.963 8.17625 120.989 8.00986C121.015 7.84346 120.996 7.67316 120.934 7.51631C120.873 7.35945 120.771 7.22165 120.639 7.11693C120.506 7.01222 120.348 6.94433 120.181 6.92019L114.083 6.03802L111.358 0.531563C111.279 0.372023 111.157 0.237677 111.005 0.143734C110.854 0.0497899 110.679 0 110.5 0C110.322 0 110.147 0.0497899 109.996 0.143734C109.844 0.237677 109.722 0.372023 109.643 0.531563L106.916 6.03802Z" fill="#FFDE5A"/>
</svg>
