<svg width="33" height="34" viewBox="0 0 33 34" fill="none" xmlns="http://www.w3.org/2000/svg">
<path d="M27.5418 5.41346C26.0701 3.88869 24.3171 2.67974 22.3851 1.8571C20.4531 1.03447 18.3807 0.614618 16.2888 0.622045C7.52393 0.621846 0.38021 7.94836 0.380006 16.938C0.37994 19.8192 1.11831 22.6182 2.49881 25.0879L0.251204 33.5506L8.67904 31.2787C11.0067 32.5794 13.6233 33.271 16.2881 33.2711C25.053 33.2713 32.1967 25.9447 32.1969 16.9551C32.197 12.5921 30.5436 8.49238 27.5418 5.41346ZM16.2881 30.505C13.9123 30.505 11.5846 29.8463 9.54596 28.6115L9.06438 28.3151L4.05583 29.6651L5.38834 24.6599L5.06729 24.1495C3.74739 21.9876 3.04656 19.4888 3.04479 16.938C3.04496 9.46315 8.98468 3.37144 16.2727 3.37161C19.8043 3.37169 23.1273 4.78771 25.6154 7.35622C26.8474 8.61407 27.8238 10.1102 28.4878 11.7579C29.1519 13.4056 29.4905 15.1722 29.484 16.9551C29.5159 24.4299 23.5762 30.5052 16.2881 30.505ZM23.5443 20.3631C23.143 20.1655 21.1845 19.1776 20.8314 19.0294C20.4622 18.8977 20.2053 18.8318 19.9324 19.227C19.6595 19.6386 18.905 20.5606 18.6802 20.824C18.4555 21.1039 18.2147 21.1368 17.8134 20.9227C17.4121 20.7252 16.1278 20.2806 14.6189 18.8975C13.431 17.8109 12.6444 16.4772 12.4037 16.0656C12.1789 15.654 12.3716 15.44 12.5803 15.2259C12.7568 15.0448 12.9816 14.7485 13.1742 14.518C13.3669 14.2875 13.4471 14.1064 13.5756 13.8429C13.704 13.563 13.6398 13.3325 13.5435 13.135C13.4472 12.9374 12.6446 10.9287 12.3235 10.1055C12.0025 9.31518 11.6654 9.41396 11.4246 9.39749L10.654 9.39747C10.3811 9.39746 9.96377 9.49624 9.59454 9.90784C9.24137 10.3194 8.21396 11.3073 8.21391 13.316C8.21387 15.3246 9.64253 17.2675 9.83516 17.5309C10.0278 17.8108 12.6443 21.927 16.6254 23.6887C17.5725 24.1168 18.3109 24.3638 18.8888 24.545C19.836 24.8578 20.7028 24.8084 21.3931 24.7097C22.1636 24.5944 23.7529 23.7218 24.074 22.7669C24.4111 21.812 24.4111 21.0052 24.2988 20.8241C24.1864 20.643 23.9456 20.5607 23.5443 20.3631Z" fill="white"/>
</svg>
