<svg width="29" height="29" viewBox="0 0 29 29" fill="none" xmlns="http://www.w3.org/2000/svg">
<path d="M26.8521 19.2387L20.268 16.2895L20.2498 16.2811C19.908 16.135 19.5352 16.0763 19.165 16.1105C18.7948 16.1446 18.4389 16.2705 18.1297 16.4766C18.0932 16.5006 18.0582 16.5268 18.0248 16.5549L14.623 19.4536C12.4679 18.4072 10.2429 16.1999 9.19614 14.0736L12.1005 10.6217C12.1284 10.5868 12.155 10.5518 12.1801 10.5141C12.382 10.2058 12.5045 9.85239 12.5367 9.48534C12.5689 9.11828 12.5098 8.74896 12.3647 8.41024L12.3647 8.39348L9.40606 1.80098C9.21423 1.35849 8.88438 0.989889 8.46575 0.750188C8.04712 0.510486 7.56215 0.412544 7.08325 0.470983C5.18943 0.720034 3.45107 1.64964 2.19283 3.08618C0.934602 4.52273 0.242548 6.36796 0.245928 8.27725C0.245676 19.3694 9.27408 28.3942 20.3712 28.3945C22.2813 28.3979 24.1274 27.7063 25.5646 26.4487C27.0019 25.1911 27.932 23.4535 28.1812 21.5605C28.2398 21.082 28.142 20.5974 27.9025 20.1789C27.663 19.7605 27.2945 19.4307 26.8521 19.2387ZM20.3712 26.1593C15.6282 26.154 11.081 24.2683 7.72726 20.9159C4.37353 17.5635 2.48719 13.0182 2.48212 8.2773C2.47689 6.91312 2.96862 5.59367 3.86547 4.56538C4.76233 3.53708 6.00298 2.87025 7.35574 2.68942C7.35518 2.695 7.35518 2.70061 7.35574 2.70618L10.2906 9.27214L7.40163 12.7282C7.37225 12.7619 7.34561 12.7979 7.32196 12.8358C7.11163 13.1584 6.98824 13.5298 6.96375 13.9141C6.93925 14.2984 7.01448 14.6824 7.18215 15.0291C8.44833 17.6178 11.0576 20.2065 13.6753 21.4708C14.0247 21.6368 14.4112 21.7095 14.797 21.6816C15.1828 21.6536 15.5548 21.5262 15.8766 21.3116C15.9125 21.2875 15.9471 21.2614 15.98 21.2334L19.3777 18.3361L25.9464 21.2769L25.9618 21.2769C25.783 22.631 25.1168 23.8735 24.0879 24.7722C23.0589 25.6708 21.7376 26.1639 20.3712 26.1593Z" fill="white"/>
</svg>
