<svg width="19" height="30" viewBox="0 0 19 30" fill="none" xmlns="http://www.w3.org/2000/svg">
<path d="M9.70565 0.106816C11.5691 0.106858 13.1531 0.413039 14.4575 1.02536C15.7886 1.61106 16.7869 2.40972 17.4524 3.42134C18.1179 4.43296 18.4506 5.55107 18.4506 6.77564C18.4506 7.86712 18.2509 8.79886 17.8515 9.57087C17.4788 10.3429 17.0263 10.9685 16.4938 11.4476C15.9614 11.9268 15.2559 12.4858 14.3774 13.1247C13.3125 13.8435 12.5272 14.4957 12.0214 15.0813C11.5155 15.6404 11.2626 16.3725 11.2626 17.2776L11.2626 18.2759L5.51239 18.2757L5.51242 17.0379C5.51244 15.7867 5.69882 14.7351 6.07154 13.8832C6.47087 13.0048 6.93676 12.3259 7.4692 11.8467C8.02826 11.341 8.72042 10.7952 9.5457 10.2096C10.3443 9.67718 10.93 9.21132 11.3027 8.81201C11.6754 8.4127 11.8618 7.92021 11.8618 7.33454C11.8618 6.61577 11.6089 6.05671 11.1031 5.65738C10.624 5.25805 9.94513 5.05838 9.06663 5.05836C7.38949 5.05832 5.83213 5.87023 4.39454 7.4941L0.361487 4.37932C2.78409 1.5309 5.89881 0.106729 9.70565 0.106816ZM8.46727 21.9096C9.45225 21.9096 10.2908 22.269 10.983 22.9878C11.7017 23.68 12.0611 24.5186 12.0611 25.5036C12.061 26.5152 11.7016 27.3804 10.9828 28.0991C10.2907 28.7913 9.45209 29.1373 8.4671 29.1373C7.48212 29.1373 6.63024 28.7912 5.91148 28.099C5.21935 27.3802 4.87329 26.515 4.87331 25.5034C4.87334 24.5184 5.21943 23.6799 5.9116 22.9877C6.63039 22.269 7.48228 21.9096 8.46727 21.9096Z" fill="white"/>
</svg>
