<?xml version="1.0" standalone="no"?>
<!DOCTYPE svg PUBLIC "-//W3C//DTD SVG 20010904//EN"
 "http://www.w3.org/TR/2001/REC-SVG-20010904/DTD/svg10.dtd">
<svg version="1.0" xmlns="http://www.w3.org/2000/svg"
 width="1140.000000pt" height="1140.000000pt" viewBox="0 0 1140.000000 1140.000000"
 preserveAspectRatio="xMidYMid meet">
<metadata>
Created by potrace 1.14, written by Peter Selinger 2001-2017
</metadata>
<g transform="translate(0.000000,1140.000000) scale(0.100000,-0.100000)"
fill="#000000" stroke="none">
<path d="M5395 11390 c-22 -3 -57 -5 -78 -5 -20 1 -37 -1 -37 -4 0 -3 -21 -7
-48 -7 -45 -1 -66 -4 -172 -21 -25 -4 -49 -8 -55 -8 -5 -1 -12 -3 -15 -4 -3
-1 -16 -4 -30 -6 -54 -7 -253 -52 -280 -62 -8 -3 -20 -7 -27 -9 -90 -19 -323
-109 -490 -189 -132 -64 -385 -210 -391 -226 -2 -5 -8 -9 -13 -9 -6 0 -15 -5
-22 -10 -7 -6 -63 -49 -126 -96 -217 -163 -464 -391 -621 -574 -36 -41 -67
-77 -70 -80 -3 -3 -28 -34 -55 -70 -28 -35 -58 -73 -67 -84 -10 -11 -18 -23
-18 -28 0 -4 -8 -17 -17 -28 -10 -11 -44 -62 -75 -113 -32 -50 -62 -97 -68
-104 -5 -7 -10 -15 -10 -18 0 -4 -16 -34 -35 -66 -19 -33 -35 -66 -35 -74 0
-7 -3 -15 -7 -17 -7 -2 -53 -90 -58 -108 -1 -3 -10 -25 -20 -50 -11 -25 -18
-47 -16 -49 1 -2 -2 -7 -8 -11 -6 -3 -13 -16 -16 -28 -2 -11 -8 -29 -13 -39
-13 -26 -80 -225 -84 -248 -2 -11 -6 -22 -9 -25 -5 -5 -75 -281 -83 -330 -4
-26 -16 -90 -23 -125 -2 -11 -6 -36 -8 -55 -3 -19 -8 -45 -11 -58 -2 -12 -7
-48 -10 -80 -3 -31 -7 -75 -10 -97 -29 -241 -33 -573 -10 -990 6 -100 -59 -90
562 -90 l545 0 -4 23 c-2 12 -1 25 3 27 4 3 5 19 3 37 -3 18 -5 38 -4 43 0 6
2 98 6 205 3 107 7 224 10 260 15 222 22 311 30 360 2 14 7 50 10 80 3 30 12
93 20 140 8 47 17 101 20 120 3 19 15 76 26 125 12 50 22 94 23 100 0 5 7 16
14 23 7 8 10 17 7 21 -6 10 53 175 95 266 32 70 108 206 120 215 3 3 16 21 28
41 12 20 44 64 70 96 26 33 58 75 72 93 14 18 39 47 55 64 17 17 46 51 65 75
32 41 97 106 152 152 13 11 32 27 43 37 11 10 40 33 65 52 25 19 47 37 50 40
3 3 12 10 21 15 9 6 47 31 85 56 252 167 564 297 844 353 14 3 36 7 50 10 14
3 45 9 70 12 25 3 52 8 61 9 131 25 492 25 664 1 153 -22 346 -63 423 -90 23
-8 46 -16 50 -17 43 -10 176 -62 262 -102 25 -12 47 -22 50 -22 3 0 21 -10 41
-23 20 -12 39 -22 43 -22 16 0 208 -128 263 -175 6 -5 32 -28 58 -49 46 -39
182 -188 220 -241 19 -27 98 -129 132 -169 54 -66 259 -408 254 -424 -1 -1 6
-18 14 -38 8 -20 15 -39 15 -41 0 -3 6 -19 14 -36 23 -54 77 -244 86 -309 1
-4 6 -22 11 -40 5 -18 12 -53 15 -78 3 -25 8 -54 11 -65 7 -35 11 -58 18 -115
4 -30 8 -63 10 -73 2 -10 6 -49 9 -85 4 -37 9 -90 11 -118 13 -122 26 -435 29
-658 l2 -160 543 0 c352 -1 545 3 549 9 11 16 14 100 15 465 2 398 -6 538 -48
830 -2 14 -7 45 -10 70 -3 25 -8 53 -11 63 -4 11 -7 29 -9 40 -3 21 -17 91
-30 152 -12 58 -75 287 -93 335 -3 8 -6 20 -8 25 -3 13 -59 162 -75 200 -7 17
-13 32 -14 35 -18 55 -115 248 -181 362 -97 168 -239 364 -363 502 -60 67
-253 258 -315 311 -32 28 -63 55 -69 60 -7 6 -50 41 -97 78 -47 38 -92 74
-100 80 -31 25 -289 197 -295 197 -4 0 -20 9 -35 20 -66 47 -440 228 -505 244
-5 2 -23 8 -40 15 -45 19 -164 58 -226 75 -30 8 -81 23 -114 32 -33 9 -69 18
-80 19 -11 2 -31 6 -45 9 -72 16 -87 19 -107 22 -12 1 -35 5 -53 9 -17 4 -47
8 -68 10 -77 8 -138 16 -167 21 -43 8 -582 12 -630 4z"/>
<path d="M5936 8042 c-2 -2 -33 -5 -68 -7 -34 -2 -83 -6 -108 -9 -67 -9 -122
-18 -145 -22 -11 -3 -33 -6 -50 -9 -135 -20 -369 -82 -540 -142 -38 -13 -74
-26 -80 -27 -5 -2 -26 -9 -45 -17 -19 -7 -38 -12 -42 -11 -5 1 -8 -2 -8 -7 0
-5 -11 -12 -26 -15 -14 -4 -64 -25 -112 -48 -48 -22 -93 -42 -100 -44 -7 -1
-19 -7 -26 -13 -7 -6 -42 -26 -77 -44 -35 -19 -80 -44 -99 -56 -19 -12 -43
-24 -52 -27 -10 -4 -18 -10 -18 -14 0 -4 -13 -13 -30 -20 -16 -7 -30 -16 -30
-21 0 -5 -5 -9 -10 -9 -10 0 -220 -149 -245 -173 -6 -7 -32 -28 -56 -47 -57
-46 -272 -260 -329 -329 -25 -29 -50 -59 -55 -65 -6 -6 -32 -40 -58 -76 -27
-36 -54 -72 -61 -81 -7 -9 -15 -20 -17 -25 -2 -5 -20 -33 -38 -61 l-35 -52
-945 0 c-521 0 -963 0 -984 -1 l-37 0 0 -1984 c1 -1091 4 -1986 7 -1990 3 -3
8 -27 10 -53 5 -67 18 -170 27 -213 3 -14 7 -34 9 -45 2 -11 8 -38 12 -60 11
-53 11 -53 25 -105 7 -25 13 -49 14 -55 3 -16 17 -58 25 -80 5 -11 14 -38 20
-60 7 -22 16 -49 20 -60 5 -11 21 -51 37 -90 73 -185 230 -468 326 -590 4 -5
36 -46 70 -90 146 -188 325 -362 526 -512 96 -71 308 -208 314 -201 2 1 17 -7
33 -18 63 -44 285 -141 446 -194 109 -36 166 -52 219 -63 14 -3 32 -8 40 -11
8 -3 31 -7 50 -10 19 -3 46 -8 60 -11 14 -3 41 -7 60 -10 19 -3 46 -7 60 -10
14 -3 57 -8 95 -11 39 -3 93 -8 120 -10 63 -5 3259 -5 3340 0 83 5 155 14 260
32 50 9 99 17 110 19 55 8 297 73 350 95 11 4 58 22 105 40 82 31 350 157 360
169 3 3 21 15 40 25 157 85 388 264 550 426 142 142 182 188 276 315 41 55 78
105 84 112 6 7 15 24 22 38 6 14 15 25 20 25 4 0 8 5 8 10 0 6 18 41 41 78 49
79 164 315 174 355 4 15 11 30 16 33 5 3 9 12 9 21 0 8 6 29 14 46 21 47 85
262 100 337 3 14 8 36 11 50 3 14 7 39 10 55 3 17 7 41 10 55 3 14 7 40 10 59
3 19 9 39 12 44 4 6 1 7 -7 2 -9 -6 -11 -4 -5 5 8 14 11 34 21 155 8 100 9
3923 1 3931 -3 3 -711 6 -1574 6 l-1569 0 0 681 0 681 -72 22 c-39 12 -73 19
-76 17 -2 -3 -13 0 -24 6 -11 6 -35 13 -53 16 -19 3 -65 11 -104 19 -38 8 -95
17 -125 21 -61 7 -438 13 -444 7z m268 -1025 c1 -219 -2 -407 -6 -417 -4 -10
-15 -20 -25 -20 -72 -6 -2003 -7 -2003 -2 0 20 199 198 350 315 30 23 141 97
146 97 5 0 85 51 94 60 3 3 10 6 15 7 6 1 43 20 84 42 41 23 79 41 85 41 7 0
16 4 21 9 6 5 39 21 75 36 36 15 76 32 90 38 14 6 27 11 30 12 10 2 146 47
160 52 8 4 17 7 20 8 17 5 97 28 110 31 8 2 43 10 77 18 61 15 74 18 183 37
83 15 99 17 180 24 41 4 76 8 77 9 1 1 55 1 119 1 l118 0 0 -398z m-3133
-1076 c14 -1 13 -11 -8 -83 -14 -46 -27 -94 -29 -108 -3 -14 -10 -43 -16 -65
-5 -22 -12 -49 -14 -60 -12 -58 -16 -82 -19 -100 -1 -11 -3 -20 -4 -20 -13 0
-20 -2530 -7 -2627 10 -75 17 -122 21 -138 2 -8 7 -33 10 -55 3 -22 19 -94 35
-160 17 -66 32 -125 33 -132 2 -7 6 -16 10 -19 4 -4 7 -14 7 -23 0 -36 144
-375 170 -401 3 -3 11 -17 19 -33 8 -15 18 -27 23 -27 4 0 8 -5 8 -10 0 -10
31 -58 55 -86 6 -6 25 -30 43 -52 18 -22 56 -63 85 -91 45 -43 72 -65 148
-124 79 -61 296 -158 389 -173 14 -3 32 -7 40 -10 25 -9 111 -17 175 -16 101
1 122 11 78 38 -15 9 -47 30 -70 45 -23 16 -44 29 -48 29 -3 0 -12 6 -20 13
-7 6 -25 21 -41 32 -64 46 -207 186 -242 237 -9 13 -19 25 -23 28 -32 24 -175
300 -166 323 0 1 -5 12 -12 25 -7 13 -14 31 -16 40 -3 9 -13 50 -24 90 -10 39
-17 72 -15 72 2 0 0 10 -5 23 -5 12 -11 47 -15 77 -4 30 -8 66 -11 80 -14 81
-17 327 -19 1540 -1 990 2 1359 11 1398 6 28 9 52 7 52 -3 0 -2 6 3 13 4 6 8
21 9 32 3 53 112 397 134 419 8 8 1177 12 1186 4 2 -3 -7 -17 -21 -32 -14 -15
-25 -31 -25 -37 0 -5 -4 -9 -10 -9 -5 0 -10 -7 -10 -15 0 -7 -6 -18 -13 -22
-12 -7 -39 -51 -86 -138 -9 -16 -21 -37 -26 -45 -5 -8 -10 -17 -11 -20 0 -3
-13 -32 -28 -65 -29 -63 -68 -169 -81 -220 -5 -16 -9 -34 -11 -40 -13 -42 -25
-98 -30 -140 -3 -27 -7 -61 -10 -75 -7 -48 -17 -356 -18 -587 -1 -140 -5 -233
-10 -233 -6 0 -6 -4 0 -10 7 -7 8 -29 4 -55 -4 -25 -4 -45 -1 -45 3 0 6 -11 6
-25 0 -14 -4 -25 -8 -25 -5 0 -5 -5 -2 -10 4 -6 9 -160 11 -343 5 -440 18
-789 29 -807 2 -3 6 -26 10 -50 9 -64 43 -196 66 -259 31 -83 93 -220 112
-246 4 -5 26 -39 48 -74 85 -134 237 -300 359 -391 18 -14 38 -30 44 -36 21
-20 135 -94 145 -94 6 0 11 -4 11 -8 0 -4 19 -18 43 -30 23 -13 65 -35 93 -50
79 -42 288 -131 319 -136 5 -1 15 -4 20 -8 8 -5 63 -22 108 -34 4 -1 8 -2 10
-4 1 -1 9 -3 17 -5 8 -1 33 -7 55 -13 22 -6 51 -13 65 -16 14 -3 59 -12 100
-20 41 -8 100 -17 130 -21 30 -4 69 -8 85 -11 43 -6 294 -6 330 1 17 2 51 7
76 10 26 2 66 9 90 15 24 6 53 12 64 14 31 6 127 36 160 50 42 18 99 41 105
42 9 1 125 58 130 64 5 5 43 27 93 53 35 19 122 80 125 89 2 4 10 8 17 8 7 0
15 3 17 8 2 4 26 25 53 47 51 40 244 230 280 275 11 14 36 45 56 70 56 69 160
229 199 306 19 38 38 71 43 72 4 2 7 11 7 21 0 9 4 21 9 27 7 8 61 142 68 169
1 6 9 35 17 65 17 61 24 97 32 150 9 55 10 2049 2 2104 -4 26 -16 66 -27 87
-12 22 -18 39 -15 39 4 0 -14 20 -39 44 -48 45 -110 81 -162 91 -46 10 -137 6
-152 -7 -7 -6 -13 -7 -13 -3 0 4 -7 2 -15 -5 -8 -7 -15 -9 -15 -6 0 17 -92
-59 -123 -101 -64 -89 -61 -30 -62 -1153 -2 -940 -3 -1030 -19 -1082 -10 -32
-18 -61 -18 -65 -1 -8 -48 -106 -75 -158 -18 -33 -104 -167 -113 -175 -3 -3
-18 -22 -34 -44 -45 -60 -184 -198 -256 -253 -212 -163 -437 -246 -670 -246
-58 0 -168 9 -210 18 -14 3 -43 8 -65 11 -22 4 -47 10 -56 15 -9 4 -19 6 -22
3 -3 -3 -12 -2 -19 2 -7 5 -17 9 -23 9 -11 1 -122 33 -145 42 -8 3 -18 5 -22
5 -5 -1 -8 2 -8 6 0 4 -10 8 -22 9 -21 2 -279 125 -302 144 -6 5 -47 36 -91
68 -90 65 -203 180 -252 257 -42 65 -109 212 -114 249 -1 6 -6 21 -11 35 -5
14 -11 43 -13 65 -2 22 -6 63 -10 92 -3 28 -7 124 -10 212 -2 89 -6 164 -8
169 -6 10 0 1273 7 1424 3 70 8 140 11 155 17 90 23 117 25 121 2 1 3 5 4 10
17 73 94 225 162 317 61 84 120 145 194 202 30 24 60 47 66 51 5 5 30 20 55
33 24 13 46 27 47 32 2 4 7 7 12 7 5 0 37 13 72 28 119 54 250 92 316 92 l37
0 -1 -1268 c0 -1315 0 -1310 40 -1389 32 -61 134 -136 204 -150 73 -14 155 -3
222 32 54 27 117 101 141 164 l22 56 1 1272 c0 699 4 1274 8 1278 4 5 2228 10
2483 5 l30 0 -1 -1602 c-1 -882 -4 -1632 -7 -1668 -3 -36 -9 -90 -14 -120 -4
-30 -7 -67 -8 -82 0 -16 -4 -28 -9 -28 -5 0 -7 -2 -4 -5 3 -4 1 -25 -4 -48 -5
-23 -11 -50 -13 -60 -2 -10 -7 -27 -10 -37 -3 -10 -8 -27 -10 -38 -10 -53
-100 -297 -125 -342 -5 -8 -23 -45 -41 -82 -18 -38 -37 -68 -42 -68 -6 0 -8
-3 -4 -6 5 -5 -77 -141 -93 -154 -3 -3 -16 -21 -27 -40 -12 -19 -30 -44 -40
-55 -10 -11 -36 -43 -57 -70 -42 -54 -226 -237 -277 -276 -16 -13 -45 -36 -62
-51 -18 -15 -40 -30 -49 -34 -10 -3 -18 -10 -18 -15 0 -5 -7 -9 -15 -9 -8 0
-15 -4 -15 -8 0 -5 -19 -19 -41 -33 -23 -13 -58 -34 -78 -46 -64 -40 -229
-123 -243 -123 -8 0 -19 -5 -25 -11 -24 -24 -356 -125 -443 -134 -14 -2 -27
-4 -30 -5 -3 -1 -9 -3 -15 -5 -5 -1 -12 -3 -15 -4 -7 -3 -69 -8 -200 -16 -166
-10 -1010 -12 -1010 -2 0 5 -5 5 -11 1 -15 -9 -309 -11 -309 -2 0 4 -7 5 -15
1 -24 -9 -1585 -9 -1585 0 0 5 -5 5 -12 1 -20 -13 -360 -4 -439 11 -12 3 -43
7 -68 10 -25 3 -84 14 -131 25 -47 11 -95 22 -108 25 -24 6 -107 32 -132 42
-8 4 -17 7 -20 8 -71 17 -319 137 -414 200 -38 25 -72 45 -76 45 -4 0 -15 9
-25 20 -10 11 -23 20 -28 20 -5 0 -20 11 -33 26 -13 14 -24 21 -24 17 0 -4 -4
-3 -8 2 -4 6 -36 35 -72 65 -249 209 -444 476 -593 810 -17 37 -87 242 -92
269 -2 9 -8 34 -13 56 -6 22 -13 52 -16 68 -3 15 -7 35 -10 45 -2 9 -8 40 -11
67 -4 28 -9 61 -12 75 -4 14 -8 779 -10 1700 l-3 1675 507 -2 c280 -1 515 -2
524 -2z"/>
</g>
</svg>
